<mxfile host="app.diagrams.net" modified="2024-07-21T12:40:23.092Z" agent="Mozilla/5.0 (Macintosh; Intel Mac OS X 10_15_7) AppleWebKit/537.36 (KHTML, like Gecko) Chrome/120.0.0.0 Whale/3.24.223.18 Safari/537.36" version="24.6.4" etag="dPHwli4N9vulYF6LChVr" type="github">
  <diagram name="페이지-1" id="GK7q8O2aWjFqR6UCMzfh">
    <mxGraphModel>
      <root>
        <mxCell id="0" />
        <mxCell id="1" parent="0" />
      </root>
    </mxGraphModel>
  </diagram>
</mxfile>
